<svg width="509" height="325" viewBox="0 0 509 325" fill="none" xmlns="http://www.w3.org/2000/svg">
<g clip-path="url(#clip0_67_5)">
<path fill-rule="evenodd" clip-rule="evenodd" d="M185.409 222.506C185.409 216.248 180.327 211.168 174.07 211.168H12.0968C5.8388 211.168 0.757812 216.248 0.757812 222.506V312.391C0.757812 318.648 5.8388 323.728 12.0968 323.728H174.07C180.327 323.728 185.409 318.648 185.409 312.391V222.506Z" fill="#8ABBB8"/>
<path fill-rule="evenodd" clip-rule="evenodd" d="M32.7914 301.801H13.7354V315.273H32.7914V301.801ZM101.768 276.626H13.6914V295.741H101.768V276.626ZM171.871 276.626H126.662V295.741H171.871V276.626Z" fill="white"/>
<path d="M185.409 242.556H0.757812V269.001H185.409V242.556Z" fill="black"/>
<path fill-rule="evenodd" clip-rule="evenodd" d="M29.7719 288.471C29.6979 287.258 29.8349 285.918 30.1049 284.668C30.5229 282.736 31.2779 281.031 31.9809 280.276C32.5899 279.623 33.2558 279.488 33.8098 279.676C34.6038 279.943 35.0728 280.653 35.1588 281.663C35.2838 283.111 34.5418 285.306 34.2678 285.933C33.6318 287.383 32.8248 288.468 31.8958 289.323C32.0288 289.951 32.2549 290.488 32.6789 290.808C33.1289 291.148 33.7738 291.176 34.6508 290.921C35.1158 290.786 36.0729 290.186 37.0009 289.446C36.8449 288.511 37.0099 287.513 37.3759 286.771C37.9409 285.628 38.9419 285.123 39.8709 285.436C40.5019 285.648 40.8449 286.013 41.0219 286.408C41.2539 286.926 41.2079 287.616 40.7749 288.361C40.4839 288.861 39.9989 289.423 39.4259 289.973C39.7119 290.203 40.1319 290.316 40.6989 290.306C41.4019 290.293 42.4669 289.753 43.6369 289.133C45.7189 288.033 48.0398 286.613 49.3988 286.246C50.5778 285.926 51.3329 286.313 51.6449 286.981C51.8889 287.501 52.1169 287.878 52.3529 288.128C52.4659 288.251 52.5639 288.336 52.6779 288.358C52.8299 288.386 52.9768 288.313 53.1378 288.238C53.3458 288.138 53.5569 288.006 53.7779 287.858C55.3119 286.841 57.1629 285.418 59.6909 286.278C60.7349 286.633 61.0198 287.598 60.8358 288.791C60.7838 289.131 60.7008 289.488 60.6488 289.818C60.6408 289.871 60.6349 289.933 60.6309 289.993C60.7529 289.986 60.8879 289.963 61.0319 289.936C61.4199 289.866 61.8469 289.743 62.2799 289.608C63.3049 289.293 64.3539 288.941 65.0719 288.896C72.6809 288.401 80.3418 288.528 87.9428 287.878C88.4928 287.831 88.9779 288.241 89.0249 288.791C89.0719 289.341 88.6629 289.823 88.1139 289.871C80.4989 290.523 72.8248 290.396 65.2008 290.891C64.4598 290.938 63.3179 291.406 62.2799 291.693C61.3409 291.956 60.4619 292.066 59.8609 291.911C58.7979 291.633 58.4799 290.696 58.6809 289.458C58.7279 289.171 58.7958 288.866 58.8458 288.571C58.8678 288.438 58.8788 288.246 58.8828 288.121C57.9648 287.863 57.1949 288.108 56.5189 288.468C55.9209 288.788 55.3849 289.193 54.8839 289.526C53.9749 290.128 53.1159 290.473 52.3089 290.323C51.5789 290.186 50.7639 289.641 50.0009 288.168C49.8689 288.198 49.6958 288.243 49.5548 288.296C49.0818 288.473 48.5249 288.748 47.9239 289.066C45.9389 290.116 43.5139 291.601 41.8819 292.098C41.4539 292.231 41.0668 292.298 40.7368 292.306C39.3958 292.331 38.4859 291.896 37.8869 291.273C36.8119 292.078 35.7408 292.688 35.2078 292.841C33.5388 293.326 32.3319 293.051 31.4759 292.406C30.9049 291.976 30.4759 291.353 30.1909 290.593C29.9069 290.766 29.6158 290.928 29.3198 291.081C27.4818 292.026 25.4028 292.621 23.3748 293.641C22.8818 293.888 22.2799 293.688 22.0319 293.196C21.7849 292.701 21.9839 292.101 22.4769 291.853C24.1149 291.031 25.7839 290.481 27.3359 289.806C28.1969 289.431 29.0209 289.016 29.7719 288.471ZM33.1748 282.006C32.8968 282.453 32.6359 283.071 32.4109 283.773C32.2779 284.188 32.1588 284.633 32.0598 285.091C31.9788 285.466 31.9108 285.848 31.8598 286.233C32.0678 285.898 32.2599 285.531 32.4369 285.128C32.6229 284.703 33.0989 283.366 33.1679 282.271C33.1729 282.181 33.1758 282.091 33.1748 282.006Z" fill="black"/>
<path d="M508.462 173.988H232.555V323.556H508.462V173.988Z" fill="#EDE9FE"/>
<path fill-rule="evenodd" clip-rule="evenodd" d="M421.921 306.78C422.94 303.052 424.57 299.316 426.831 296.188C427.283 295.564 428.044 294.353 428.92 293.554C429.736 292.81 430.663 292.426 431.56 292.624C432.595 292.851 433.127 293.609 433.239 294.682C433.402 296.276 432.396 298.768 432.006 299.471C430.094 302.928 426.977 305.741 423.666 308.013C423.522 308.624 423.426 309.261 423.47 309.85C423.527 310.603 423.859 311.258 424.782 311.516C426.669 312.039 428.765 311.496 430.768 310.49C431.536 310.104 432.289 309.65 433.012 309.15C433.029 308.838 433.06 308.55 433.09 308.318C433.505 305.01 435.38 301.904 437.632 299.51C437.985 299.135 439.153 297.801 440.109 297.404C440.927 297.064 441.663 297.181 442.2 297.867C442.697 298.502 442.815 299.401 442.58 300.407C442.184 302.098 440.775 304.18 440.188 304.99C439.013 306.607 437.174 308.526 435.035 310.149C435.052 310.254 435.078 310.355 435.116 310.444C435.137 310.496 435.15 310.553 435.203 310.573C436.111 310.915 437.091 310.536 438.051 309.968C439.851 308.905 441.538 307.081 442.595 306.105C443.053 305.682 443.808 304.892 444.603 304.414C445.371 303.951 446.183 303.779 446.905 304.034C447.791 304.348 448.121 304.96 448.123 305.756C448.123 306.219 447.957 306.797 447.713 307.408C447.494 307.952 447.213 308.534 447.051 309.078C446.999 309.252 446.957 309.418 446.951 309.575C446.944 309.685 446.986 309.772 447.112 309.822C447.676 310.045 448.164 309.896 448.616 309.597C449.269 309.163 449.856 308.462 450.441 307.755C451.292 306.727 452.139 305.684 453.046 305.095C453.845 304.578 454.692 304.366 455.617 304.595C456.942 304.925 457.189 306.025 456.84 307.48C456.73 307.945 456.567 308.454 456.49 308.929C456.447 309.213 456.346 309.506 456.63 309.632C457.069 309.826 457.483 309.735 457.889 309.554C458.276 309.381 458.655 309.126 459.033 308.86C459.729 308.371 460.421 307.838 461.126 307.496C461.717 307.207 462.322 307.042 462.94 307.061C463.465 307.079 463.81 307.245 464.05 307.443C464.345 307.688 464.517 308.011 464.585 308.401C464.622 308.606 464.624 308.84 464.607 309.084C464.598 309.213 464.589 309.414 464.583 309.558C466.626 309.824 468.908 309.185 470.949 309.049C474.426 308.816 477.937 309.021 481.399 308.709C481.949 308.659 482.435 309.065 482.483 309.615C482.534 310.165 482.128 310.651 481.578 310.702C478.101 311.016 474.574 310.811 471.082 311.044C468.863 311.193 466.368 311.85 464.159 311.518C463.653 311.444 463.319 311.247 463.086 311.018C462.822 310.758 462.669 310.438 462.606 310.071C462.562 309.82 462.566 309.538 462.586 309.257C462.59 309.207 462.595 309.143 462.599 309.08C462.206 309.146 461.829 309.366 461.447 309.61C460.79 310.032 460.142 310.558 459.48 310.963C458.313 311.682 457.106 312.031 455.818 311.459C454.888 311.046 454.526 310.348 454.467 309.508C454.426 308.936 454.568 308.268 454.738 307.622C454.816 307.323 454.899 307.031 454.952 306.76C454.965 306.688 454.976 306.59 454.98 306.509C454.557 306.468 454.186 306.703 453.817 307.009C453.184 307.533 452.593 308.294 451.981 309.03C451.263 309.898 450.521 310.732 449.72 311.265C448.719 311.928 447.625 312.175 446.381 311.684C445.26 311.243 444.908 310.451 444.952 309.493C444.98 308.86 445.249 308.109 445.556 307.376C445.705 307.024 445.86 306.675 445.975 306.35C446.021 306.221 446.063 306.046 446.089 305.915C446.023 305.931 445.956 305.964 445.888 305.994C445.705 306.073 445.524 306.19 445.349 306.319C444.788 306.73 444.282 307.269 443.95 307.576C442.82 308.62 440.995 310.551 439.068 311.69C437.54 312.594 435.941 312.991 434.496 312.443C433.952 312.238 433.568 311.845 433.326 311.337C432.782 311.679 432.228 311.996 431.667 312.277C429.188 313.521 426.58 314.091 424.247 313.443C422.106 312.847 421.44 311.221 421.473 309.429C421.25 309.565 421.03 309.695 420.81 309.826C419.374 310.673 417.811 311.734 416.203 312.236C416.216 312.231 416.257 312.216 416.257 312.216C416.257 312.216 416.002 312.304 415.884 312.314C415.705 312.334 415.552 312.308 415.436 312.269C415.209 312.192 415.044 312.057 414.926 311.891C414.607 311.441 414.714 310.817 415.164 310.499C415.306 310.398 415.465 310.339 415.624 310.32C417.084 309.861 418.488 308.873 419.793 308.104C420.502 307.688 421.213 307.247 421.921 306.78ZM416.512 310.675L416.526 310.693L416.523 310.688L416.512 310.675ZM416.475 310.634L416.491 310.649L416.486 310.645L416.475 310.634ZM416.438 310.597L416.453 310.61L416.447 310.603L416.438 310.597ZM416.401 310.562L416.408 310.568L416.403 310.564L416.401 310.562ZM440.7 299.377C440.511 299.501 440.246 299.682 440.083 299.835C439.638 300.25 439.258 300.702 439.09 300.881C437.398 302.679 435.923 304.918 435.305 307.347C436.637 306.166 437.772 304.914 438.568 303.816C439.002 303.216 439.976 301.823 440.458 300.52C440.589 300.16 440.687 299.811 440.698 299.497C440.7 299.455 440.703 299.416 440.7 299.377ZM424.622 304.835C426.877 303.048 428.9 300.957 430.255 298.504C430.517 298.035 431.154 296.546 431.248 295.348C431.264 295.158 431.264 294.979 431.24 294.818C431.224 294.713 431.233 294.6 431.13 294.578C430.999 294.547 430.875 294.606 430.751 294.674C430.585 294.763 430.426 294.89 430.268 295.032C429.5 295.734 428.85 296.813 428.453 297.36C426.829 299.604 425.559 302.184 424.622 304.835Z" fill="black"/>
<path fill-rule="evenodd" clip-rule="evenodd" d="M386.576 276.123V273.742C386.576 272.831 387.247 272.092 388.076 272.092C388.902 272.092 389.576 272.831 389.576 273.742V277.586C389.576 278.496 388.902 279.236 388.076 279.236H388.073C387.866 279.357 387.628 279.423 387.375 279.423H257.031C256.768 279.423 256.52 279.348 256.305 279.219C255.48 279.214 254.812 278.477 254.812 277.569V273.742C254.812 272.831 255.485 272.092 256.312 272.092C257.141 272.092 257.812 272.831 257.812 273.742V276.123H386.576ZM438.341 240.385V237.286C438.341 236.376 439.013 235.636 439.841 235.636C440.668 235.636 441.341 236.376 441.341 237.286V241.13C441.341 241.488 441.238 241.818 441.062 242.087C441.036 242.973 440.376 243.685 439.562 243.685H256.42C256.402 243.685 256.385 243.685 256.367 243.685C256.347 243.685 256.331 243.685 256.312 243.685C255.485 243.685 254.812 242.945 254.812 242.035V238.207C254.812 237.297 255.485 236.557 256.312 236.557C257.141 236.557 257.812 237.297 257.812 238.207V240.385H438.341ZM255.445 209.022L255.552 205.181C255.58 204.27 256.273 203.556 257.1 203.583C257.928 203.613 258.577 204.375 258.552 205.282L258.492 207.427H438.695V205.233C438.695 204.323 439.367 203.583 440.195 203.583C441.022 203.583 441.695 204.323 441.695 205.233V209.077C441.695 209.987 441.022 210.727 440.195 210.727C440.177 210.727 440.158 210.727 440.141 210.727C440.122 210.727 440.105 210.727 440.087 210.727H256.951C256.943 210.727 256.932 210.727 256.925 210.727H256.917C256.767 210.724 256.625 210.697 256.49 210.65C256.255 210.567 256.045 210.424 255.878 210.237L255.87 210.229L255.862 210.221L255.857 210.215C255.692 210.023 255.567 209.789 255.5 209.528C255.462 209.379 255.442 209.22 255.445 209.058V209.047C255.445 209.038 255.445 209.03 255.445 209.022Z" fill="#B4A1FF"/>
<path fill-rule="evenodd" clip-rule="evenodd" d="M481.19 281.022V272.09C481.19 271.262 481.862 270.59 482.69 270.59C483.517 270.59 484.19 271.262 484.19 272.09V282.522C484.19 283.352 483.52 284.022 482.69 284.022H408.34C407.51 284.022 406.84 283.352 406.84 282.522V272.09C406.84 271.262 407.512 270.59 408.34 270.59C409.167 270.59 409.84 271.262 409.84 272.09V281.022H481.19Z" fill="#B4A1FF"/>
<path fill-rule="evenodd" clip-rule="evenodd" d="M409.84 261.342V272.09C409.84 272.917 409.167 273.59 408.34 273.59C407.512 273.59 406.84 272.917 406.84 272.09V259.842C406.84 259.015 407.51 258.342 408.34 258.342H482.69C483.52 258.342 484.19 259.015 484.19 259.842V272.09C484.19 272.917 483.517 273.59 482.69 273.59C481.862 273.59 481.19 272.917 481.19 272.09V261.342H409.84Z" fill="#B4A1FF"/>
<path fill-rule="evenodd" clip-rule="evenodd" d="M415.23 277.829H422.867C423.695 277.829 424.367 277.157 424.367 276.329C424.367 275.502 423.695 274.829 422.867 274.829H415.23C414.402 274.829 413.73 275.502 413.73 276.329C413.73 277.157 414.402 277.829 415.23 277.829ZM441.697 277.829H449.332C450.159 277.829 450.832 277.157 450.832 276.329C450.832 275.502 450.159 274.829 449.332 274.829H441.697C440.869 274.829 440.197 275.502 440.197 276.329C440.197 277.157 440.869 277.829 441.697 277.829ZM428.462 277.829H436.1C436.927 277.829 437.6 277.157 437.6 276.329C437.6 275.502 436.927 274.829 436.1 274.829H428.462C427.634 274.829 426.962 275.502 426.962 276.329C426.962 277.157 427.634 277.829 428.462 277.829ZM454.93 277.829H462.567C463.394 277.829 464.067 277.157 464.067 276.329C464.067 275.502 463.394 274.829 462.567 274.829H454.93C454.102 274.829 453.43 275.502 453.43 276.329C453.43 277.157 454.102 277.829 454.93 277.829ZM468.165 277.829H475.8C476.627 277.829 477.3 277.157 477.3 276.329C477.3 275.502 476.627 274.829 475.8 274.829H468.165C467.337 274.829 466.665 275.502 466.665 276.329C466.665 277.157 467.337 277.829 468.165 277.829Z" fill="#B4A1FF"/>
<path d="M473.811 226.485C485.422 226.485 494.834 217.073 494.834 205.463C494.834 193.853 485.422 184.441 473.811 184.441C462.201 184.441 452.789 193.853 452.789 205.463C452.789 217.073 462.201 226.485 473.811 226.485Z" fill="#B4A1FF"/>
<path fill-rule="evenodd" clip-rule="evenodd" d="M473.112 194.205L473.254 184.45C473.439 184.445 473.624 184.442 473.809 184.442C474.296 184.442 474.776 184.46 475.254 184.492L475.112 194.23C476.902 194.207 478.766 194.06 480.684 193.747C479.424 190.107 477.881 186.972 476.564 184.622C477.426 184.735 478.277 184.9 479.104 185.115C480.304 187.397 481.592 190.205 482.669 193.367C484.824 192.89 487.037 192.197 489.277 191.232C489.747 191.742 490.192 192.277 490.609 192.832C488.127 193.945 485.672 194.74 483.279 195.277C483.427 195.772 483.566 196.272 483.699 196.782C484.426 199.535 484.942 202.482 485.092 205.535L494.829 205.825C494.819 206.5 494.774 207.165 494.701 207.822L485.134 207.537C485.114 210.935 484.612 214.435 483.417 217.925C485.249 218.442 487.112 219.125 488.992 220.002C488.492 220.522 487.967 221.017 487.417 221.485C485.829 220.785 484.256 220.232 482.704 219.8C481.876 221.79 480.809 223.77 479.467 225.715C478.514 225.982 477.534 226.182 476.532 226.312C478.339 224.022 479.712 221.677 480.724 219.312C478.674 218.872 476.674 218.637 474.749 218.56L474.631 226.47C474.359 226.48 474.084 226.487 473.809 226.487C473.414 226.487 473.021 226.475 472.631 226.455L472.749 218.535C470.349 218.57 468.089 218.835 466.021 219.23C467.121 221.495 468.551 223.822 470.371 226.205C469.344 226.037 468.344 225.792 467.374 225.48C466.011 223.502 464.901 221.562 464.011 219.667C462.391 220.06 460.921 220.52 459.636 220.985C459.099 220.492 458.587 219.975 458.104 219.43C459.562 218.872 461.279 218.302 463.209 217.82C461.771 214.242 461.107 210.837 460.982 207.652C460.972 207.372 460.964 207.095 460.962 206.82L452.816 206.577C452.799 206.21 452.789 205.837 452.789 205.465C452.789 205.167 452.794 204.872 452.806 204.577L461.014 204.82C461.241 201.085 462.191 197.695 463.456 194.73C460.846 194.035 458.714 193.22 457.214 192.567C457.642 192.015 458.099 191.487 458.579 190.98C460.024 191.582 461.972 192.292 464.304 192.895C465.997 189.497 468.036 186.765 469.691 184.845C470.686 184.647 471.706 184.52 472.746 184.467C471.161 186.072 468.457 189.15 466.292 193.36C468.352 193.787 470.647 194.11 473.112 194.205ZM483.126 207.477L474.917 207.235L474.779 216.565C476.927 216.647 479.161 216.915 481.454 217.427C482.619 214.085 483.109 210.73 483.126 207.477ZM462.964 206.88C462.967 207.11 462.972 207.342 462.982 207.575C463.099 210.645 463.764 213.922 465.186 217.37C467.499 216.9 470.054 216.58 472.779 216.542L472.919 207.175L462.964 206.88ZM481.306 195.667C479.161 196.035 477.076 196.202 475.081 196.225L474.946 205.235L483.079 205.475C482.931 202.62 482.444 199.865 481.766 197.29C481.621 196.742 481.469 196.2 481.306 195.667ZM465.412 195.205C464.174 198.032 463.239 201.287 463.014 204.88L472.949 205.175L473.081 196.195C470.289 196.09 467.707 195.707 465.412 195.205Z" fill="#EDE9FE"/>
<path fill-rule="evenodd" clip-rule="evenodd" d="M292.867 280.135C293.492 292.59 295.487 303.188 298.847 312.968C301.045 319.43 307.112 323.776 313.937 323.776C313.937 323.783 313.937 323.783 313.937 323.783C319.687 323.783 324.872 320.323 327.077 315.013C330.895 305.84 334.112 294.575 336.415 280.135H292.867Z" fill="#505050"/>
<path fill-rule="evenodd" clip-rule="evenodd" d="M293.271 285.995C293.228 285.513 293.188 285.028 293.148 284.538L304.473 284.748C304.473 284.748 307.071 293.41 309.451 301.105C312.626 311.363 315.656 318.178 322.221 321.123C321.596 321.57 320.933 321.968 320.243 322.308C318.136 323.078 315.528 323.783 313.936 323.783C313.936 323.783 313.936 323.783 313.936 323.775C313.893 323.775 313.848 323.775 313.806 323.775C313.556 323.773 313.308 323.765 313.061 323.753L312.981 323.748C312.876 323.74 312.768 323.735 312.663 323.725L312.586 323.72L312.508 323.713L312.428 323.705C312.403 323.703 312.378 323.7 312.351 323.698L312.308 323.693C312.216 323.685 312.126 323.673 312.033 323.663C311.983 323.658 311.933 323.65 311.883 323.645L311.803 323.635C311.676 323.615 311.546 323.598 311.418 323.578L311.341 323.565C311.316 323.56 311.288 323.555 311.263 323.55L311.186 323.538C311.161 323.533 311.136 323.53 311.108 323.525L311.036 323.51C310.951 323.495 310.866 323.48 310.781 323.463C310.363 323.378 309.951 323.278 309.546 323.16C309.411 323.123 309.278 323.083 309.143 323.04C308.968 322.985 308.793 322.925 308.621 322.865C308.556 322.843 308.491 322.818 308.426 322.795L308.281 322.74C307.276 322.358 306.316 321.878 305.413 321.308L305.286 321.225C305.236 321.193 305.186 321.16 305.138 321.128L305.031 321.055L304.903 320.97L304.863 320.943C304.438 320.648 304.028 320.335 303.636 320C303.498 319.885 303.363 319.768 303.231 319.648L303.118 319.543L303.006 319.44C302.968 319.405 302.933 319.37 302.896 319.335L302.803 319.245C302.293 318.748 301.816 318.215 301.376 317.653C301.148 317.36 300.928 317.06 300.721 316.753C300.656 316.653 300.591 316.555 300.526 316.455C300.446 316.33 300.368 316.203 300.291 316.075L300.266 316.035L300.241 315.993C300.063 315.695 299.896 315.39 299.736 315.08L299.701 315.01L299.676 314.958C299.463 314.53 299.268 314.093 299.091 313.643L299.063 313.568C299.023 313.463 298.983 313.358 298.946 313.253C298.911 313.158 298.878 313.063 298.846 312.968L298.771 312.75L298.748 312.68L298.698 312.535L298.668 312.45L298.623 312.315L298.593 312.228L298.551 312.098L298.521 312.008L298.476 311.875L298.448 311.788L298.403 311.648L298.376 311.57L298.321 311.395L298.306 311.353L298.233 311.133L298.216 311.073L298.163 310.915L298.138 310.833L298.093 310.695L298.066 310.605L298.023 310.473L297.996 310.383L297.953 310.25L297.926 310.16L297.883 310.023L297.858 309.94L297.808 309.783L297.788 309.72L297.723 309.498L297.708 309.455L297.656 309.278L297.631 309.198L297.588 309.055L297.563 308.968L297.521 308.833L297.496 308.74L297.456 308.608L297.428 308.518L297.388 308.38L297.363 308.293L297.321 308.145L297.298 308.07L297.236 307.853L297.233 307.848L297.171 307.623L297.151 307.55L297.106 307.4L297.083 307.313L297.043 307.175L297.018 307.083L296.981 306.948L296.956 306.855L296.918 306.72L296.893 306.63L296.853 306.485L296.833 306.403L296.783 306.225L296.771 306.178L296.711 305.953L296.693 305.888L296.651 305.725L296.628 305.64L296.591 305.498L296.566 305.405L296.531 305.27L296.508 305.175L296.473 305.04L296.448 304.948L296.413 304.805L296.391 304.718L296.348 304.558L296.333 304.49L296.276 304.26L296.263 304.215L296.218 304.033L296.198 303.95L296.163 303.803L296.141 303.71L296.106 303.573L296.083 303.475L296.051 303.34L296.028 303.243L295.993 303.105L295.973 303.013L295.938 302.86L295.918 302.78L295.868 302.568L295.863 302.548L295.811 302.318L295.793 302.238L295.758 302.088L295.738 301.993L295.706 301.853L295.683 301.755L295.653 301.618L295.631 301.52L295.601 301.383L295.581 301.285L295.548 301.14L295.528 301.05L295.491 300.878L295.478 300.815L295.428 300.585L295.413 300.51L295.378 300.35L295.358 300.255L295.331 300.113L295.308 300.013L295.281 299.875L295.261 299.773L295.233 299.638L295.211 299.535L295.183 299.398L295.163 299.298L295.133 299.145L295.116 299.06L295.071 298.828L295.058 298.76L295.026 298.59L295.006 298.493L294.978 298.35L294.958 298.245L294.933 298.113L294.913 298.003L294.888 297.87L294.868 297.763L294.843 297.628L294.823 297.523L294.798 297.383L294.781 297.28L294.748 297.105L294.736 297.043L294.728 296.995L294.696 296.808L294.676 296.703L294.653 296.565L294.633 296.453L294.611 296.323L294.591 296.208L294.568 296.08L294.548 295.965L294.528 295.838L294.508 295.72L294.486 295.593L294.468 295.478L294.446 295.338L294.428 295.233L294.391 295L294.371 294.885L294.351 294.755L294.331 294.633L294.313 294.51L294.293 294.385L294.273 294.265L294.256 294.14L294.236 294.02L294.216 293.893L294.198 293.775L294.178 293.645L294.163 293.53L294.143 293.398L294.128 293.293L294.108 293.163L294.088 293.028L294.073 292.92L294.053 292.783L294.038 292.673L294.018 292.535L294.003 292.425L293.983 292.288L293.971 292.178L293.951 292.038L293.936 291.933L293.916 291.788L293.903 291.69L293.883 291.538L293.876 291.473L293.851 291.298L293.826 291.093L293.821 291.06L293.801 290.895L293.788 290.81L293.771 290.653L293.758 290.56L293.738 290.403L293.728 290.31L293.708 290.153L293.698 290.063L293.678 289.9L293.668 289.82L293.648 289.645L293.643 289.603L293.618 289.403C293.611 289.323 293.601 289.243 293.593 289.163L293.568 288.958L293.566 288.918L293.543 288.733L293.538 288.665L293.518 288.485L293.511 288.415L293.491 288.235L293.483 288.165L293.463 287.98L293.458 287.923L293.438 287.725L293.436 287.705C293.403 287.393 293.373 287.083 293.343 286.768L293.341 286.745L293.321 286.533L293.316 286.49L293.298 286.283L293.293 286.24L293.276 286.028L293.271 285.995Z" fill="#BCBCBC"/>
<path fill-rule="evenodd" clip-rule="evenodd" d="M157.242 280.436C157.867 292.891 159.862 303.489 163.222 313.269C165.42 319.731 171.487 324.076 178.312 324.076C178.312 324.084 178.312 324.084 178.312 324.084C184.062 324.084 189.247 320.624 191.452 315.314C195.27 306.141 198.487 294.876 200.79 280.436H157.242Z" fill="#E7E7E7"/>
<path fill-rule="evenodd" clip-rule="evenodd" d="M157.332 282.071C157.3 281.529 157.27 280.986 157.242 280.436H200.79C200.58 281.746 200.365 283.026 200.142 284.284L193.025 284.166C191.707 288.389 183.732 313.891 179.815 317.991C176.607 321.346 174.94 322.461 173.285 323.264C168.69 321.736 164.937 318.159 163.275 313.421L163.272 313.416L163.252 313.354L163.222 313.269C162.725 311.821 162.257 310.354 161.82 308.866C161.76 308.666 161.702 308.466 161.645 308.264C161.485 307.714 161.332 307.159 161.18 306.599C161.15 306.481 161.117 306.364 161.085 306.244C160.91 305.581 160.737 304.911 160.572 304.236C160.432 303.666 160.295 303.091 160.165 302.514C159.98 301.711 159.805 300.901 159.637 300.081C159.52 299.509 159.407 298.929 159.297 298.346C159.252 298.099 159.205 297.851 159.16 297.601L159.115 297.346C159.05 296.984 158.985 296.619 158.925 296.251C158.812 295.589 158.705 294.919 158.602 294.244L158.562 293.981C158.492 293.526 158.427 293.066 158.362 292.604L158.335 292.399L158.327 292.339C158.102 290.676 157.905 288.984 157.737 287.254L157.712 286.976L157.707 286.931C157.66 286.419 157.612 285.904 157.57 285.384C157.48 284.294 157.4 283.191 157.332 282.071Z" fill="#505050"/>
<path fill-rule="evenodd" clip-rule="evenodd" d="M365.312 163.792C367.167 163.272 368.692 162.8 369.072 162.563C373.532 159.787 377.297 155.204 379.294 150.003C381.224 144.984 381.707 139.413 379.364 134.486C376.554 138.528 372.097 141.274 368.034 141.595C363.509 141.952 359.159 139.739 356.974 133.337C354.399 125.79 359.414 119.782 366.907 118.276C369.774 117.7 373.057 117.872 376.314 119.037C376.114 117.092 375.632 115.19 374.924 113.359C373.059 108.533 369.744 104.178 365.807 100.811C364.799 99.9989 364.642 98.523 365.452 97.516C366.262 96.509 367.739 96.35 368.747 97.162C373.554 100.805 377.664 105.672 380.164 111.154C381.827 114.801 382.742 118.722 382.692 122.774C384.772 124.553 386.697 126.879 388.327 129.826C392.409 137.208 392.474 145.826 389.954 153.744C387.477 161.536 382.279 168.52 375.987 172.97C375.199 173.53 372.147 174.92 368.607 176.275C369.037 178.377 369.434 180.567 369.802 182.857C376.652 225.522 376.384 265.38 363.787 305.575C360.214 316.905 349.707 324.612 337.829 324.612C337.827 324.615 337.827 324.615 337.827 324.615C327.279 324.615 317.902 317.89 314.522 307.895C310.457 295.882 305.692 281.795 305.692 281.795H190.219C190.219 281.795 184.272 298.617 179.834 311.175C176.987 319.23 169.372 324.615 160.829 324.615H160.827C150.194 324.615 140.963 317.285 138.555 306.927C135.814 295.137 132.711 281.795 132.711 281.795H97.973C93.941 281.795 90.1589 279.437 88.7319 275.667C84.2869 263.925 75.435 233.712 89.585 198.45C90.624 195.862 93.313 194.315 96.104 194.315C105.359 194.307 125.802 194.307 125.802 194.307C125.802 194.307 128.893 147.226 171.529 122.399L159.932 100.264C159.932 100.264 179.324 92.624 196.492 114.706C237.407 105.078 273.487 104.043 319.434 117.675C330.189 120.848 339.917 126.8 347.639 134.93C353.014 140.578 357.249 146.236 360.609 152.654C362.417 156.108 363.969 159.782 365.312 163.792ZM374.814 128.804C373.449 127.836 371.994 127.273 370.559 127.094C367.334 126.69 363.904 127.918 364.742 130.94C365.462 133.548 367.189 134.419 369.042 133.845C371.324 133.137 373.584 131.251 374.814 128.804Z" fill="#E7E7E7"/>
<path fill-rule="evenodd" clip-rule="evenodd" d="M189.401 284.102L193.123 272.647C193.303 272.089 193.856 271.737 194.436 271.809C195.018 271.882 195.468 272.357 195.508 272.942L196.118 281.797H190.216L189.401 284.102ZM298.633 281.797L300.563 272.217C300.651 271.792 301.011 271.477 301.446 271.449C301.878 271.419 302.278 271.687 302.418 272.099C303.836 276.284 306.063 282.862 306.063 282.862L306.053 282.864L305.691 281.797H298.633ZM343.658 202.117C343.658 169.794 318.796 142.91 286.571 140.389C263.051 138.528 239.668 138.544 216.423 140.384C184.196 142.899 159.328 169.784 159.328 202.109C159.326 202.109 159.326 202.109 159.326 202.109C159.326 235.609 185.961 263.042 219.448 264.027C240.891 264.664 262.253 264.664 283.536 264.034C317.023 263.049 343.658 235.617 343.658 202.117ZM111.356 194.412C113.345 198.842 115.173 204.857 116.425 213.022C116.634 214.384 115.696 215.662 114.333 215.869C112.969 216.079 111.692 215.142 111.482 213.779C110.078 204.622 107.981 198.497 105.824 194.414L109.979 194.412H111.356ZM121.103 194.412C122.676 197.814 124.092 202.152 125.129 207.682C125.383 209.039 124.489 210.347 123.133 210.599C121.777 210.854 120.469 209.959 120.215 208.604C119.002 202.139 117.276 197.597 115.494 194.412H121.103ZM368.603 176.274C369.036 178.377 364.951 162.716 365.311 163.792C367.163 163.272 368.691 162.8 369.071 162.563C369.343 162.393 369.616 162.216 369.883 162.032C370.908 165.349 372.098 169.599 373.148 174.404C371.873 174.972 370.293 175.627 368.603 176.274ZM379.363 134.486C378.903 135.501 383.013 128.651 382.691 122.774C384.283 124.137 385.786 125.82 387.133 127.858C386.473 131.054 385.031 135.18 381.916 139.208C381.631 139.576 381.263 139.844 380.858 140.003C380.683 138.118 380.206 136.26 379.363 134.486ZM376.311 119.036C376.741 124.316 374.471 129.483 374.813 128.803C373.448 127.836 371.993 127.273 370.556 127.093C370.433 127.078 370.311 127.065 370.188 127.054C372.163 123.795 371.846 120.261 371.306 117.993C372.941 118.098 374.631 118.435 376.311 119.036ZM171.498 122.416L173.346 126.106C173.963 127.34 173.463 128.843 172.231 129.461C170.996 130.079 169.493 129.579 168.876 128.345L167.231 125.06C168.608 124.154 170.031 123.272 171.498 122.416ZM198.226 117.591C198.226 117.591 195.796 113.811 196.491 114.706C198.168 114.311 199.838 113.931 201.503 113.564L202.311 114.707C203.106 115.834 202.836 117.395 201.711 118.191C200.583 118.987 199.021 118.718 198.226 117.591Z" fill="#505050"/>
<path d="M94.7361 281.9C102.117 281.9 108.101 262.315 108.101 238.155C108.101 213.996 102.117 194.411 94.7361 194.411C87.3551 194.411 81.3711 213.996 81.3711 238.155C81.3711 262.315 87.3551 281.9 94.7361 281.9Z" fill="#505050"/>
<path fill-rule="evenodd" clip-rule="evenodd" d="M87.5898 218.645V257.668C87.5898 259.045 88.7098 260.168 90.0898 260.168C91.4698 260.168 92.5898 259.045 92.5898 257.668V218.645C92.5898 217.265 91.4698 216.145 90.0898 216.145C88.7098 216.145 87.5898 217.265 87.5898 218.645Z" fill="black"/>
<path fill-rule="evenodd" clip-rule="evenodd" d="M96.8828 218.645V257.668C96.8828 259.045 98.0028 260.168 99.3828 260.168C100.763 260.168 101.883 259.045 101.883 257.668V218.645C101.883 217.265 100.763 216.145 99.3828 216.145C98.0028 216.145 96.8828 217.265 96.8828 218.645Z" fill="black"/>
<path fill-rule="evenodd" clip-rule="evenodd" d="M135.291 183.083C135.237 184.499 135.076 187.532 135.819 190.265C136.75 193.691 138.933 196.653 143.567 196.915C145.476 197.022 148.096 196.775 150.231 194.708C152.058 192.939 153.698 189.599 153.569 183.127L148.569 183.228C148.656 187.574 147.98 189.928 146.754 191.116C145.836 192.003 144.668 191.969 143.848 191.923C141.866 191.81 141.042 190.42 140.644 188.953C140.057 186.794 140.245 184.392 140.288 183.274L135.291 183.083Z" fill="black"/>
<path d="M306.17 121.442H206.996L209.502 132.461H308.676L306.17 121.442Z" fill="black"/>
<path fill-rule="evenodd" clip-rule="evenodd" d="M215.469 140.467C215.791 140.436 216.109 140.409 216.429 140.384C239.674 138.544 263.056 138.528 286.576 140.39C291.314 140.76 295.891 141.657 300.254 143.02V195.245H215.469V140.467Z" fill="#8ABBB8"/>
<path fill-rule="evenodd" clip-rule="evenodd" d="M230.691 139.485C247.959 138.676 265.299 138.873 282.719 140.101C278.329 150.035 268.386 156.974 256.836 156.974C245.049 156.974 234.936 149.747 230.691 139.485Z" fill="#CAF2EF"/>
<path fill-rule="evenodd" clip-rule="evenodd" d="M242.555 195.245V170.89C242.555 167.985 244.91 165.629 247.812 165.629C250.717 165.629 253.072 167.985 253.072 170.89V195.245H242.555ZM260.12 195.245V177.1C260.12 174.197 262.477 171.84 265.38 171.84C268.282 171.84 270.64 174.197 270.64 177.1V195.245H260.12Z" fill="#CAF2EF"/>
<path d="M300.253 53.238H215.469V126.477H300.253V53.238Z" fill="#CAF2EF"/>
<path fill-rule="evenodd" clip-rule="evenodd" d="M228.641 126.477C229.773 111.902 241.973 100.412 256.836 100.412C271.698 100.412 283.898 111.902 285.031 126.477H228.641Z" fill="#8ABBB8"/>
<path fill-rule="evenodd" clip-rule="evenodd" d="M273.694 53.238V73.9901C273.694 76.8931 271.339 79.2501 268.437 79.2501C265.534 79.2501 263.177 76.8931 263.177 73.9901V53.238H273.694ZM256.129 53.238V67.7801C256.129 70.6831 253.772 73.0391 250.869 73.0391C247.967 73.0391 245.609 70.6831 245.609 67.7801V53.238H256.129Z" fill="#8ABBB8"/>
<path d="M215.551 221.289C230.303 221.289 242.262 209.45 242.262 194.847C242.262 180.243 230.303 168.404 215.551 168.404C200.799 168.404 188.84 180.243 188.84 194.847C188.84 209.45 200.799 221.289 215.551 221.289Z" fill="#FFEAB5"/>
<path fill-rule="evenodd" clip-rule="evenodd" d="M215.553 174.222C227.052 174.222 236.388 183.464 236.388 194.847C236.388 206.23 227.052 215.472 215.553 215.472C215.086 215.472 214.707 215.847 214.707 216.31C214.707 216.772 215.086 217.147 215.553 217.147C227.986 217.147 238.08 207.155 238.08 194.847C238.08 182.539 227.986 172.546 215.553 172.546C215.086 172.546 214.707 172.922 214.707 173.384C214.707 173.846 215.086 174.222 215.553 174.222Z" fill="#FAC370"/>
<path fill-rule="evenodd" clip-rule="evenodd" d="M215.55 215.472C204.051 215.472 194.715 206.23 194.715 194.847C194.715 183.464 204.051 174.222 215.55 174.222C216.017 174.222 216.397 173.846 216.397 173.384C216.397 172.922 216.017 172.546 215.55 172.546C203.116 172.546 193.023 182.539 193.023 194.847C193.023 207.155 203.116 217.147 215.55 217.147C216.017 217.147 216.397 216.772 216.397 216.31C216.397 215.847 216.017 215.472 215.55 215.472Z" fill="#FAC370"/>
<path fill-rule="evenodd" clip-rule="evenodd" d="M218.765 221.099L218.219 216.743C218.161 216.284 218.491 215.865 218.955 215.808C219.419 215.751 219.84 216.077 219.899 216.536L220.439 220.846C219.887 220.947 219.329 221.032 218.765 221.099ZM223.76 220.014L222.247 215.594C222.098 215.156 222.335 214.68 222.778 214.531C223.22 214.383 223.701 214.618 223.85 215.056L225.354 219.448C224.831 219.653 224.3 219.842 223.76 220.014ZM200.825 216.906L203.178 213.077C203.42 212.682 203.941 212.556 204.34 212.796C204.74 213.037 204.867 213.552 204.625 213.947L202.265 217.787C201.774 217.508 201.294 217.214 200.825 216.906ZM237.527 209.871L233.639 207.023C233.265 206.748 233.185 206.223 233.463 205.851C233.74 205.48 234.27 205.401 234.646 205.676L238.447 208.461C238.156 208.941 237.848 209.412 237.527 209.871ZM190.164 203.089L194.732 201.053C195.157 200.864 195.66 201.052 195.851 201.473C196.042 201.895 195.852 202.391 195.426 202.581L190.745 204.667C190.535 204.149 190.34 203.623 190.164 203.089ZM241.468 188.433C241.604 188.973 241.724 189.519 241.825 190.071L237.322 191.123C236.868 191.229 236.411 190.95 236.305 190.5C236.196 190.05 236.479 189.598 236.932 189.492L241.468 188.433ZM193.478 179.957L197.503 182.563C197.894 182.816 198.004 183.335 197.748 183.722C197.492 184.109 196.968 184.218 196.577 183.965L192.569 181.369C192.857 180.888 193.161 180.417 193.478 179.957ZM196.105 176.724L199.378 179.107C199.754 179.381 199.835 179.906 199.557 180.278C199.281 180.651 198.75 180.731 198.374 180.457L194.981 177.985C195.341 177.553 195.717 177.133 196.105 176.724ZM230.988 173.272C231.449 173.596 231.899 173.933 232.337 174.285L229.411 177.937C229.12 178.3 228.587 178.36 228.221 178.073C227.856 177.786 227.795 177.258 228.084 176.896L230.988 173.272ZM226.456 170.705C226.972 170.935 227.48 171.18 227.978 171.439L225.914 175.27C225.694 175.678 225.182 175.833 224.769 175.615C224.357 175.398 224.202 174.89 224.422 174.482L226.456 170.705ZM209.56 169.073L210.751 173.279C210.877 173.724 210.614 174.187 210.164 174.311C209.714 174.436 209.247 174.176 209.122 173.731L207.923 169.5C208.461 169.341 209.006 169.199 209.56 169.073Z" fill="#FAC370"/>
<path d="M286.598 254.048C301.35 254.048 313.309 242.209 313.309 227.605C313.309 213.002 301.35 201.163 286.598 201.163C271.846 201.163 259.887 213.002 259.887 227.605C259.887 242.209 271.846 254.048 286.598 254.048Z" fill="#FFEAB5"/>
<path fill-rule="evenodd" clip-rule="evenodd" d="M286.6 206.98C298.099 206.98 307.435 216.222 307.435 227.605C307.435 238.988 298.099 248.23 286.6 248.23C286.133 248.23 285.754 248.605 285.754 249.068C285.754 249.53 286.133 249.906 286.6 249.906C299.033 249.906 309.127 239.913 309.127 227.605C309.127 215.297 299.033 205.305 286.6 205.305C286.133 205.305 285.754 205.68 285.754 206.142C285.754 206.605 286.133 206.98 286.6 206.98Z" fill="#FAC370"/>
<path fill-rule="evenodd" clip-rule="evenodd" d="M286.597 248.23C275.097 248.23 265.761 238.988 265.761 227.605C265.761 216.222 275.097 206.98 286.597 206.98C287.064 206.98 287.443 206.605 287.443 206.142C287.443 205.68 287.064 205.305 286.597 205.305C274.163 205.305 264.07 215.297 264.07 227.605C264.07 239.913 274.163 249.906 286.597 249.906C287.064 249.906 287.443 249.53 287.443 249.068C287.443 248.605 287.064 248.23 286.597 248.23Z" fill="#FAC370"/>
<path fill-rule="evenodd" clip-rule="evenodd" d="M289.812 253.857L289.266 249.501C289.208 249.042 289.538 248.624 290.002 248.566C290.466 248.509 290.887 248.836 290.946 249.295L291.486 253.605C290.934 253.706 290.376 253.79 289.812 253.857ZM294.807 252.773L293.294 248.352C293.145 247.914 293.382 247.438 293.825 247.29C294.267 247.142 294.748 247.377 294.896 247.814L296.401 252.207C295.878 252.411 295.347 252.6 294.807 252.773ZM271.872 249.665L274.224 245.835C274.466 245.44 274.988 245.315 275.387 245.555C275.787 245.795 275.914 246.311 275.672 246.706L273.312 250.546C272.821 250.267 272.341 249.973 271.872 249.665ZM308.573 242.63L304.686 239.782C304.312 239.507 304.232 238.982 304.51 238.61C304.787 238.238 305.317 238.16 305.693 238.435L309.494 241.22C309.203 241.7 308.895 242.17 308.573 242.63ZM261.211 235.847L265.779 233.812C266.204 233.622 266.706 233.81 266.898 234.232C267.089 234.654 266.899 235.15 266.473 235.34L261.791 237.426C261.582 236.908 261.387 236.381 261.211 235.847ZM312.515 221.192C312.651 221.732 312.771 222.278 312.872 222.83L308.369 223.881C307.915 223.987 307.458 223.708 307.351 223.258C307.243 222.808 307.526 222.357 307.979 222.25L312.515 221.192ZM264.525 212.715L268.55 215.321C268.941 215.574 269.051 216.094 268.795 216.481C268.539 216.868 268.015 216.977 267.624 216.723L263.616 214.128C263.904 213.647 264.208 213.176 264.525 212.715ZM267.152 209.483L270.425 211.866C270.801 212.14 270.882 212.665 270.604 213.037C270.328 213.409 269.797 213.489 269.421 213.215L266.028 210.743C266.388 210.312 266.764 209.891 267.152 209.483ZM302.035 206.031C302.496 206.354 302.946 206.692 303.384 207.044L300.458 210.696C300.167 211.058 299.634 211.119 299.268 210.832C298.903 210.544 298.842 210.017 299.131 209.655L302.035 206.031ZM297.503 203.464C298.019 203.693 298.527 203.939 299.024 204.198L296.961 208.029C296.741 208.437 296.228 208.591 295.815 208.374C295.404 208.156 295.249 207.648 295.469 207.241L297.503 203.464ZM280.607 201.832L281.798 206.037C281.924 206.482 281.661 206.945 281.211 207.07C280.761 207.195 280.294 206.935 280.168 206.49L278.97 202.259C279.508 202.1 280.053 201.957 280.607 201.832Z" fill="#FAC370"/>
<path d="M157.754 53.099C172.506 53.099 184.465 41.26 184.465 26.657C184.465 12.053 172.506 0.213989 157.754 0.213989C143.002 0.213989 131.043 12.053 131.043 26.657C131.043 41.26 143.002 53.099 157.754 53.099Z" fill="#FFEAB5"/>
<path fill-rule="evenodd" clip-rule="evenodd" d="M157.752 6.03098C169.251 6.03098 178.587 15.273 178.587 26.656C178.587 38.04 169.251 47.281 157.752 47.281C157.285 47.281 156.906 47.657 156.906 48.119C156.906 48.581 157.285 48.9569 157.752 48.9569C170.185 48.9569 180.279 38.964 180.279 26.656C180.279 14.348 170.185 4.35596 157.752 4.35596C157.285 4.35596 156.906 4.73097 156.906 5.19397C156.906 5.65597 157.285 6.03098 157.752 6.03098Z" fill="#FAC370"/>
<path fill-rule="evenodd" clip-rule="evenodd" d="M157.753 47.281C146.254 47.281 136.918 38.04 136.918 26.656C136.918 15.273 146.254 6.03098 157.753 6.03098C158.221 6.03098 158.6 5.65597 158.6 5.19397C158.6 4.73097 158.221 4.35596 157.753 4.35596C145.32 4.35596 135.227 14.348 135.227 26.656C135.227 38.964 145.32 48.9569 157.753 48.9569C158.221 48.9569 158.6 48.581 158.6 48.119C158.6 47.657 158.221 47.281 157.753 47.281Z" fill="#FAC370"/>
<path fill-rule="evenodd" clip-rule="evenodd" d="M160.968 52.9091L160.422 48.5521C160.364 48.0931 160.694 47.675 161.158 47.618C161.622 47.561 162.043 47.8871 162.102 48.3461L162.642 52.6561C162.091 52.7571 161.532 52.8421 160.968 52.9091ZM165.963 51.824L164.45 47.4041C164.301 46.9661 164.538 46.4901 164.981 46.3411C165.423 46.1931 165.904 46.4281 166.053 46.8661L167.557 51.2581C167.034 51.4631 166.503 51.652 165.963 51.824ZM143.028 48.7161L145.381 44.8871C145.623 44.4921 146.144 44.3661 146.543 44.6061C146.943 44.8461 147.07 45.3621 146.828 45.7571L144.468 49.597C143.978 49.318 143.497 49.0241 143.028 48.7161ZM179.73 41.6811L175.842 38.8331C175.468 38.5581 175.388 38.0331 175.666 37.6611C175.944 37.2891 176.473 37.2111 176.849 37.4861L180.65 40.2711C180.359 40.7511 180.051 41.2211 179.73 41.6811ZM132.367 34.8981L136.935 32.863C137.36 32.673 137.863 32.8621 138.054 33.2831C138.245 33.7051 138.056 34.2011 137.629 34.3911L132.948 36.4771C132.738 35.959 132.543 35.4331 132.367 34.8981ZM183.671 20.243C183.807 20.783 183.927 21.329 184.029 21.881L179.525 22.9321C179.071 23.0391 178.614 22.7591 178.508 22.3101C178.399 21.8591 178.682 21.4081 179.136 21.3021L183.671 20.243ZM135.681 11.7671L139.706 14.373C140.097 14.626 140.207 15.145 139.951 15.532C139.696 15.919 139.171 16.0281 138.78 15.7751L134.772 13.1791C135.06 12.6981 135.365 12.2271 135.681 11.7671ZM138.308 8.53406L141.581 10.9171C141.957 11.1911 142.038 11.7161 141.76 12.0881C141.485 12.4611 140.953 12.5411 140.577 12.2671L137.184 9.79507C137.544 9.36307 137.92 8.94306 138.308 8.53406ZM173.192 5.08206C173.652 5.40606 174.102 5.74306 174.541 6.09506L171.614 9.74707C171.323 10.1091 170.79 10.1701 170.424 9.88306C170.059 9.59506 169.998 9.06805 170.287 8.70605L173.192 5.08206ZM168.659 2.51508C169.175 2.74408 169.683 2.99005 170.181 3.24905L168.118 7.08005C167.898 7.48805 167.385 7.64305 166.972 7.42505C166.56 7.20805 166.405 6.70005 166.625 6.29205L168.659 2.51508ZM151.763 0.883057L152.955 5.08807C153.08 5.53407 152.817 5.99606 152.367 6.12106C151.917 6.24606 151.45 5.98605 151.325 5.54105L150.126 1.31006C150.665 1.15106 151.21 1.00906 151.763 0.883057Z" fill="#FAC370"/>
<path d="M67.5626 150.36C82.3146 150.36 94.2726 138.521 94.2726 123.918C94.2726 109.314 82.3146 97.475 67.5626 97.475C52.8096 97.475 40.8516 109.314 40.8516 123.918C40.8516 138.521 52.8096 150.36 67.5626 150.36Z" fill="#FFEAB5"/>
<path fill-rule="evenodd" clip-rule="evenodd" d="M67.5648 103.293C79.0628 103.293 88.3987 112.535 88.3987 123.918C88.3987 135.301 79.0628 144.543 67.5648 144.543C67.0978 144.543 66.7188 144.918 66.7188 145.381C66.7188 145.843 67.0978 146.218 67.5648 146.218C79.9978 146.218 90.0918 136.226 90.0918 123.918C90.0918 111.61 79.9978 101.617 67.5648 101.617C67.0978 101.617 66.7188 101.993 66.7188 102.455C66.7188 102.918 67.0978 103.293 67.5648 103.293Z" fill="#FAC370"/>
<path fill-rule="evenodd" clip-rule="evenodd" d="M67.5622 144.543C56.0622 144.543 46.7262 135.301 46.7262 123.918C46.7262 112.534 56.0622 103.293 67.5622 103.293C68.0292 103.293 68.4081 102.917 68.4081 102.455C68.4081 101.993 68.0292 101.617 67.5622 101.617C55.1282 101.617 45.0352 111.61 45.0352 123.918C45.0352 136.226 55.1282 146.218 67.5622 146.218C68.0292 146.218 68.4081 145.843 68.4081 145.38C68.4081 144.918 68.0292 144.543 67.5622 144.543Z" fill="#FAC370"/>
<path fill-rule="evenodd" clip-rule="evenodd" d="M70.7767 150.17L70.2297 145.814C70.1727 145.355 70.5027 144.936 70.9667 144.879C71.4297 144.822 71.8518 145.148 71.9108 145.607L72.4507 149.917C71.8987 150.019 71.3407 150.103 70.7767 150.17ZM75.7717 149.085L74.2587 144.665C74.1097 144.227 74.3467 143.751 74.7897 143.603C75.2317 143.454 75.7118 143.689 75.8608 144.127L77.3658 148.519C76.8428 148.724 76.3117 148.913 75.7717 149.085ZM52.8367 145.977L55.1888 142.148C55.4308 141.753 55.9527 141.627 56.3517 141.867C56.7507 142.108 56.8777 142.623 56.6357 143.018L54.2767 146.858C53.7857 146.579 53.3057 146.285 52.8367 145.977ZM89.5378 138.942L85.6508 136.094C85.2768 135.819 85.1967 135.294 85.4747 134.922C85.7517 134.551 86.2818 134.472 86.6578 134.747L90.4587 137.532C90.1677 138.012 89.8598 138.483 89.5378 138.942ZM42.1758 132.16L46.7438 130.124C47.1688 129.935 47.6707 130.123 47.8627 130.544C48.0537 130.966 47.8637 131.462 47.4377 131.652L42.7557 133.738C42.5457 133.22 42.3518 132.694 42.1758 132.16ZM93.4797 117.504C93.6147 118.044 93.7357 118.59 93.8367 119.142L89.3328 120.194C88.8798 120.3 88.4227 120.021 88.3157 119.571C88.2077 119.121 88.4907 118.669 88.9437 118.563L93.4797 117.504ZM45.4897 109.028L49.5137 111.634C49.9047 111.887 50.0148 112.406 49.7598 112.794C49.5038 113.18 48.9797 113.289 48.5887 113.036L44.5807 110.44C44.8687 109.959 45.1727 109.488 45.4897 109.028ZM48.1158 105.795L51.3898 108.178C51.7648 108.452 51.8467 108.977 51.5687 109.349C51.2927 109.722 50.7617 109.802 50.3857 109.528L46.9927 107.056C47.3527 106.624 47.7288 106.204 48.1158 105.795ZM82.9998 102.343C83.4608 102.667 83.9108 103.004 84.3488 103.356L81.4227 107.008C81.1317 107.371 80.5987 107.431 80.2327 107.144C79.8667 106.857 79.8068 106.329 80.0958 105.967L82.9998 102.343ZM78.4678 99.7761C78.9838 100.006 79.4918 100.251 79.9888 100.511L77.9258 104.341C77.7058 104.749 77.1928 104.904 76.7798 104.686C76.3688 104.469 76.2127 103.961 76.4327 103.553L78.4678 99.7761ZM61.5718 98.144L62.7628 102.35C62.8878 102.795 62.6258 103.258 62.1758 103.382C61.7258 103.507 61.2588 103.247 61.1328 102.802L59.9348 98.571C60.4728 98.412 61.0178 98.27 61.5718 98.144Z" fill="#FAC370"/>
<path d="M432.531 114.604C447.283 114.604 459.242 102.765 459.242 88.162C459.242 73.558 447.283 61.719 432.531 61.719C417.779 61.719 405.82 73.558 405.82 88.162C405.82 102.765 417.779 114.604 432.531 114.604Z" fill="#FFEAB5"/>
<path fill-rule="evenodd" clip-rule="evenodd" d="M432.534 67.5361C444.032 67.5361 453.367 76.7781 453.367 88.1611C453.367 99.5441 444.032 108.786 432.534 108.786C432.067 108.786 431.688 109.162 431.688 109.624C431.688 110.086 432.067 110.462 432.534 110.462C444.966 110.462 455.06 100.469 455.06 88.1611C455.06 75.8531 444.966 65.8611 432.534 65.8611C432.067 65.8611 431.688 66.236 431.688 66.699C431.688 67.161 432.067 67.5361 432.534 67.5361Z" fill="#FAC370"/>
<path fill-rule="evenodd" clip-rule="evenodd" d="M432.535 108.786C421.035 108.786 411.699 99.5441 411.699 88.1611C411.699 76.7781 421.035 67.5361 432.535 67.5361C433.002 67.5361 433.381 67.161 433.381 66.699C433.381 66.236 433.002 65.8611 432.535 65.8611C420.101 65.8611 410.008 75.8531 410.008 88.1611C410.008 100.469 420.101 110.462 432.535 110.462C433.002 110.462 433.381 110.086 433.381 109.624C433.381 109.162 433.002 108.786 432.535 108.786Z" fill="#FAC370"/>
<path fill-rule="evenodd" clip-rule="evenodd" d="M435.747 114.414L435.2 110.058C435.143 109.599 435.473 109.18 435.936 109.123C436.4 109.066 436.822 109.392 436.881 109.851L437.421 114.161C436.869 114.262 436.31 114.347 435.747 114.414ZM440.741 113.329L439.228 108.909C439.079 108.471 439.316 107.995 439.76 107.846C440.201 107.698 440.682 107.933 440.831 108.371L442.336 112.763C441.813 112.968 441.281 113.157 440.741 113.329ZM417.806 110.221L420.159 106.392C420.401 105.997 420.922 105.871 421.322 106.111C421.721 106.352 421.848 106.867 421.606 107.262L419.247 111.102C418.756 110.823 418.275 110.529 417.806 110.221ZM454.508 103.186L450.62 100.338C450.246 100.063 450.167 99.538 450.444 99.166C450.722 98.795 451.252 98.716 451.627 98.991L455.429 101.776C455.138 102.256 454.83 102.727 454.508 103.186ZM407.145 96.4039L411.713 94.3679C412.138 94.1789 412.641 94.367 412.832 94.788C413.023 95.21 412.834 95.7059 412.407 95.8959L407.726 97.9819C407.516 97.4639 407.322 96.9379 407.145 96.4039ZM458.45 81.7479C458.585 82.2879 458.705 82.8339 458.807 83.3859L454.303 84.4379C453.85 84.5439 453.393 84.2639 453.286 83.8149C453.178 83.3649 453.46 82.9129 453.914 82.8069L458.45 81.7479ZM410.459 73.2719L414.484 75.8779C414.875 76.1309 414.985 76.6499 414.729 77.0369C414.474 77.4239 413.949 77.533 413.558 77.28L409.55 74.684C409.838 74.203 410.143 73.7319 410.459 73.2719ZM413.086 70.0389L416.359 72.4219C416.735 72.6959 416.816 73.221 416.539 73.593C416.263 73.966 415.731 74.0459 415.356 73.7719L411.962 71.2999C412.323 70.8679 412.699 70.4479 413.086 70.0389ZM447.97 66.5869C448.43 66.9109 448.88 67.2479 449.319 67.5999L446.393 71.252C446.101 71.615 445.568 71.6749 445.203 71.3879C444.837 71.1009 444.776 70.5729 445.066 70.2109L447.97 66.5869ZM443.437 64.02C443.954 64.25 444.461 64.495 444.959 64.754L442.896 68.585C442.676 68.993 442.163 69.1479 441.75 68.9299C441.339 68.7129 441.183 68.2049 441.403 67.7969L443.437 64.02ZM426.541 62.3879L427.733 66.5939C427.858 67.0389 427.596 67.5019 427.146 67.6259C426.695 67.7509 426.228 67.491 426.103 67.046L424.905 62.8149C425.443 62.6559 425.988 62.5139 426.541 62.3879Z" fill="#FAC370"/>
<path fill-rule="evenodd" clip-rule="evenodd" d="M337.274 55.948V51.777C337.274 51.087 337.834 50.527 338.524 50.527C339.214 50.527 339.774 51.087 339.774 51.777V55.948H343.944C344.634 55.948 345.194 56.508 345.194 57.198C345.194 57.887 344.634 58.448 343.944 58.448H339.774V62.618C339.774 63.308 339.214 63.868 338.524 63.868C337.834 63.868 337.274 63.308 337.274 62.618V58.448H333.102C332.412 58.448 331.852 57.887 331.852 57.198C331.852 56.508 332.412 55.948 333.102 55.948H337.274Z" fill="#FD9500"/>
<path fill-rule="evenodd" clip-rule="evenodd" d="M133.368 103.259V99.089C133.368 98.399 133.928 97.839 134.618 97.839C135.308 97.839 135.868 98.399 135.868 99.089V103.259H140.038C140.728 103.259 141.288 103.819 141.288 104.509C141.288 105.199 140.728 105.759 140.038 105.759H135.868V109.93C135.868 110.62 135.308 111.18 134.618 111.18C133.928 111.18 133.368 110.62 133.368 109.93V105.759H129.195C128.505 105.759 127.945 105.199 127.945 104.509C127.945 103.819 128.505 103.259 129.195 103.259H133.368Z" fill="#FD9500"/>
<path fill-rule="evenodd" clip-rule="evenodd" d="M418.904 146.022V141.851C418.904 141.161 419.464 140.601 420.154 140.601C420.844 140.601 421.404 141.161 421.404 141.851V146.022H425.573C426.263 146.022 426.823 146.582 426.823 147.272C426.823 147.961 426.263 148.522 425.573 148.522H421.404V152.692C421.404 153.382 420.844 153.942 420.154 153.942C419.464 153.942 418.904 153.382 418.904 152.692V148.522H414.73C414.04 148.522 413.48 147.961 413.48 147.272C413.48 146.582 414.04 146.022 414.73 146.022H418.904Z" fill="#FD9500"/>
</g>
<defs>
<clipPath id="clip0_67_5">
<rect width="509" height="325" fill="white"/>
</clipPath>
</defs>
</svg>
