<svg width="18" height="14" viewBox="0 0 18 14" fill="none" xmlns="http://www.w3.org/2000/svg">
<path fill-rule="evenodd" clip-rule="evenodd" d="M0.100391 6.54004C1.34039 2.81004 4.86029 0.120117 9.00029 0.120117C13.1403 0.120117 16.6502 2.80979 17.9002 6.52979C18.0002 6.82979 18.0002 7.15996 17.9002 7.45996C16.6602 11.19 13.1403 13.8799 9.00029 13.8799C4.86029 13.8799 1.34039 11.1902 0.100391 7.47021C0.000390626 7.17021 0.000390626 6.84004 0.100391 6.54004ZM13.3704 7C13.3704 9.42 11.4203 11.3799 9.00029 11.3799C6.58029 11.3799 4.62041 9.42 4.62041 7C4.62041 4.58 6.58029 2.62012 9.00029 2.62012C11.4203 2.62012 13.3704 4.58 13.3704 7Z" fill="#C7C6C6"/>
</svg>
