<svg xmlns="http://www.w3.org/2000/svg" width="400" height="300" viewBox="0 0 400 300" fill="none">
  <!-- Background Circle -->
  <ellipse cx="200" cy="200" rx="150" ry="100" fill="#F5F0FF" />
  
  <!-- First person -->
  <path d="M160 230C160 230 150 210 155 190C160 170 170 180 175 190C180 200 185 220 165 230" fill="#FFD166" />
  <path d="M160 180C160 180 155 170 160 165C165 160 180 150 185 160C190 170 185 175 180 180" fill="#FFAE33" />
  <path d="M170 165C170 165 165 155 170 150C175 145 185 145 185 150C185 155 180 160 175 165" fill="#333" />
  <path d="M175 160C175 160 177 150 182 155C187 160 182 165 177 160" fill="#FFF" />
  
  <!-- Second person -->
  <path d="M240 230C240 230 230 210 235 200C240 190 250 185 255 190C260 195 265 210 245 230" fill="#9966FF" />
  <path d="M245 180C245 180 240 170 245 165C250 160 265 150 270 160C275 170 270 175 265 180" fill="#7C4DFF" />
  <path d="M255 165C255 165 250 155 255 150C260 145 270 145 270 150C270 155 265 160 260 165" fill="#333" />
  <path d="M260 160C260 160 262 150 267 155C272 160 267 165 262 160" fill="#FFF" />
  
  <!-- Fireworks 1 -->
  <path d="M150 150L170 130M150 130L170 150M140 140L180 140" stroke="#FFD166" stroke-width="3" />
  <path d="M160 120L160 160" stroke="#FF6B6B" stroke-width="3" />
  <path d="M145 125L175 155M175 125L145 155" stroke="#9966FF" stroke-width="3" />
  
  <!-- Fireworks 2 -->
  <path d="M260 150L280 130M260 130L280 150M250 140L290 140" stroke="#FFD166" stroke-width="3" />
  <path d="M270 120L270 160" stroke="#FF6B6B" stroke-width="3" />
  <path d="M255 125L285 155M285 125L255 155" stroke="#9966FF" stroke-width="3" />
  
  <!-- Confetti -->
  <rect x="130" y="160" width="5" height="5" fill="#FF6B6B" transform="rotate(30 130 160)" />
  <rect x="150" y="180" width="5" height="5" fill="#FFD166" transform="rotate(45 150 180)" />
  <rect x="170" y="140" width="5" height="5" fill="#9966FF" transform="rotate(60 170 140)" />
  <rect x="190" y="170" width="5" height="5" fill="#333" transform="rotate(20 190 170)" />
  <rect x="210" y="150" width="5" height="5" fill="#FF6B6B" transform="rotate(50 210 150)" />
  <rect x="230" y="175" width="5" height="5" fill="#FFD166" transform="rotate(10 230 175)" />
  <rect x="250" y="145" width="5" height="5" fill="#9966FF" transform="rotate(70 250 145)" />
  <rect x="270" y="165" width="5" height="5" fill="#333" transform="rotate(40 270 165)" />
</svg> 